<?xml version="1.0" standalone="no"?>
<!DOCTYPE svg PUBLIC "-//W3C//DTD SVG 20010904//EN"
 "http://www.w3.org/TR/2001/REC-SVG-20010904/DTD/svg10.dtd">
<svg version="1.0" xmlns="http://www.w3.org/2000/svg"
 width="800.000000pt" height="1066.000000pt" viewBox="0 0 800.000000 1066.000000"
 preserveAspectRatio="xMidYMid meet">

<g transform="translate(0.000000,1066.000000) scale(0.100000,-0.100000)"
fill="#000000" stroke="none">
<path d="M6909 8649 c-15 -30 -18 -64 -24 -314 -3 -121 -8 -276 -10 -345 -2
-69 -5 -160 -6 -203 -1 -48 -7 -83 -15 -91 -7 -7 -50 -16 -96 -20 -214 -18
-385 -89 -601 -249 -238 -178 -427 -373 -558 -577 -99 -155 -102 -157 -141
-153 l-33 4 28 -18 c34 -22 34 -37 0 -82 -16 -20 -27 -39 -26 -43 2 -4 -8 -41
-22 -82 -18 -52 -28 -116 -37 -221 -13 -167 -4 -329 36 -655 13 -102 21 -191
19 -197 -3 -7 -11 -13 -19 -13 -8 0 -14 -4 -14 -8 0 -4 -13 -15 -29 -25 -45
-27 -109 -147 -78 -147 7 0 19 -11 25 -25 15 -33 16 -105 1 -105 -6 0 -9 -6
-7 -12 5 -13 -3 -25 -42 -63 -14 -14 -22 -25 -19 -25 3 0 -12 -19 -33 -42 -22
-24 -45 -43 -52 -43 -6 0 -22 -10 -35 -22 -13 -12 -28 -20 -32 -17 -5 3 -11
-7 -15 -21 -3 -14 -13 -25 -21 -25 -8 0 -13 -8 -12 -17 2 -10 -4 -31 -14 -48
-9 -16 -16 -24 -17 -17 0 10 -3 10 -14 0 -8 -7 -12 -16 -9 -20 2 -5 -1 -8 -7
-8 -6 0 -9 -4 -5 -9 3 -5 -8 -18 -25 -28 -21 -12 -30 -24 -26 -35 2 -10 -1
-18 -7 -18 -14 0 -62 -54 -82 -91 -8 -14 -30 -38 -50 -53 -65 -50 -27 -40 57
15 132 86 216 150 405 307 l112 93 63 -23 c54 -19 82 -22 203 -22 261 1 494
76 663 212 62 50 118 129 158 223 39 93 123 376 154 522 34 159 149 469 255
692 73 155 163 307 249 424 114 156 170 260 202 373 35 124 37 196 6 254 -18
35 -31 45 -84 67 -57 23 -154 45 -265 62 l-42 7 6 499 c3 274 3 499 0 499 -3
0 -11 -10 -18 -21z m-154 -1425 c-13 -30 -53 -97 -88 -147 -81 -117 -208 -350
-261 -479 -17 -42 -22 -45 -54 -22 -12 8 -25 13 -30 11 -4 -2 -38 0 -77 5 -38
5 -78 9 -87 9 -24 0 -23 5 18 74 68 112 178 250 289 361 105 106 276 244 302
244 9 0 5 -18 -12 -56z m-1020 -272 c3 -7 9 -11 14 -7 12 7 31 -26 31 -55 0
-12 -13 -35 -29 -51 -23 -23 -39 -29 -70 -29 -41 0 -41 0 -41 37 0 48 43 122
70 120 11 -1 22 -7 25 -15z m553 -427 c45 -7 85 -15 88 -17 7 -7 -75 -221 -88
-229 -5 -3 -22 -43 -38 -88 -28 -81 -52 -121 -74 -121 -14 0 -129 -116 -144
-145 -32 -61 -26 347 7 441 11 29 22 72 26 95 4 23 18 53 31 66 26 25 13 26
192 -2z m-261 -687 c-3 -8 -6 -5 -6 6 -1 11 2 17 5 13 3 -3 4 -12 1 -19z m46
-533 c-3 -8 -9 -15 -14 -15 -10 0 -12 24 -3 33 11 11 24 -3 17 -18z"/>
<path d="M6200 6310 c8 -5 22 -10 30 -10 13 0 13 1 0 10 -8 5 -22 10 -30 10
-13 0 -13 -1 0 -10z"/>
<path d="M1890 8494 c-117 -9 -369 -45 -445 -65 -260 -65 -487 -180 -707 -358
-98 -79 -138 -127 -183 -222 -48 -101 -61 -176 -45 -253 18 -88 246 -530 433
-841 68 -113 228 -345 250 -363 12 -10 32 -4 101 28 l87 40 -45 62 c-184 253
-378 565 -470 757 -41 85 -41 87 -41 201 l0 115 43 80 c69 129 163 237 262
301 113 72 338 182 477 233 182 66 450 111 670 111 85 0 93 -8 100 -104 8 -99
-7 -136 -95 -224 -242 -245 -310 -343 -396 -576 -67 -179 -125 -463 -126 -614
0 -40 -25 -127 -54 -194 -7 -16 -3 -16 51 3 32 12 146 52 253 89 l195 67 12
119 c41 411 133 647 374 969 38 50 85 108 105 130 52 56 64 91 64 191 0 97
-13 134 -63 181 -41 40 -197 101 -301 119 -81 14 -402 25 -506 18z m-516 -163
c12 -18 -110 -101 -149 -101 -8 0 -15 -5 -15 -10 0 -6 -7 -10 -17 -8 -11 2
-19 -7 -25 -28 -9 -35 -37 -52 -50 -32 -6 11 -10 10 -17 -1 -13 -21 -19 1 -9
37 8 29 22 38 51 33 5 -1 6 3 3 8 -4 5 3 13 15 16 17 6 19 9 8 16 -11 7 -11 9
3 9 9 0 18 4 20 9 5 14 120 60 150 61 15 0 29 -4 32 -9z m-264 -211 c0 -5 -19
-23 -42 -39 -24 -17 -67 -53 -97 -81 -45 -43 -56 -49 -63 -35 -15 25 1 56 36
70 18 8 45 29 60 48 22 27 33 33 53 29 18 -3 24 -1 19 7 -5 7 0 11 13 11 12 0
21 -4 21 -10z"/>
<path d="M3506 7156 c89 -40 409 -134 674 -197 96 -23 179 -45 183 -49 4 -4 4
-25 -1 -48 -9 -40 -9 -41 17 -38 14 1 40 -5 56 -14 61 -33 62 -33 81 22 l17
51 71 -7 c39 -3 89 -8 111 -12 27 -4 35 -2 25 4 -8 6 -89 24 -180 41 -91 17
-185 36 -210 41 -25 5 -61 12 -80 14 -19 3 -57 12 -85 19 -138 38 -248 66
-325 82 -83 17 -194 49 -275 78 -22 8 -56 18 -75 21 l-35 7 31 -15z"/>
<path d="M4765 6860 c3 -5 16 -10 28 -10 18 0 19 2 7 10 -20 13 -43 13 -35 0z"/>
<path d="M910 5524 c0 -9 215 -100 365 -155 290 -106 710 -249 732 -249 7 0
68 -20 135 -45 67 -25 127 -45 132 -44 15 0 -163 71 -304 120 -63 22 -137 49
-165 59 -27 9 -82 29 -122 43 -39 14 -86 32 -105 40 -62 27 -103 42 -112 39
-4 -1 -13 2 -20 7 -11 9 -24 14 -171 67 -110 40 -365 122 -365 118z"/>
<path d="M2420 4980 c20 -13 33 -13 25 0 -3 6 -14 10 -23 10 -15 0 -15 -2 -2
-10z"/>
<path d="M2470 4960 c8 -5 20 -10 25 -10 6 0 3 5 -5 10 -8 5 -19 10 -25 10 -5
0 -3 -5 5 -10z"/>
<path d="M2696 4885 c41 -18 91 -30 81 -19 -4 4 -15 9 -23 10 -9 1 -23 6 -32
10 -9 4 -26 8 -37 10 -11 1 -6 -4 11 -11z"/>
<path d="M2890 4820 c8 -5 20 -10 25 -10 6 0 3 5 -5 10 -8 5 -19 10 -25 10 -5
0 -3 -5 5 -10z"/>
<path d="M1919 4773 c-40 -20 -101 -73 -240 -212 -189 -190 -244 -258 -255
-317 -20 -109 67 -177 318 -249 136 -40 168 -43 175 -17 4 17 13 16 196 -4
106 -12 254 -25 330 -28 77 -4 147 -11 158 -17 11 -5 38 -9 62 -8 44 2 81 0
417 -27 142 -12 210 -21 221 -31 10 -8 46 -18 82 -23 35 -5 77 -14 91 -20 15
-5 33 -10 39 -9 7 0 -10 9 -38 19 -63 23 -51 25 22 4 39 -11 52 -19 42 -25
-11 -7 -10 -9 6 -10 11 -1 28 -2 37 -1 11 1 15 -3 11 -13 -3 -9 -1 -21 5 -28
5 -6 13 -27 17 -44 3 -18 14 -37 23 -42 15 -9 15 -13 4 -31 -13 -21 -8 -81 6
-79 41 6 44 0 37 -63 -8 -67 -24 -113 -25 -68 0 15 -3 21 -10 14 -5 -5 -11
-45 -14 -89 -2 -44 -5 -82 -6 -85 -6 -14 -19 83 -20 140 -1 125 -39 122 -41
-3 -1 -77 -2 -80 -13 -45 -17 54 -24 55 -21 2 2 -32 9 -50 20 -57 16 -8 17
-22 11 -121 -15 -237 -38 -370 -70 -403 -14 -14 -54 0 -63 23 -7 20 24 87 37
79 18 -11 50 6 50 26 0 22 -4 23 -32 8 -20 -11 -20 -9 -16 55 4 73 -5 68 -23
-11 -7 -29 -15 -53 -19 -53 -4 0 -12 107 -19 238 -22 443 -22 442 -36 442 -9
0 -14 -54 -18 -232 -3 -128 -10 -249 -15 -268 l-9 -35 -7 50 c-4 28 -11 79
-16 115 -5 36 -12 148 -16 250 -8 255 -10 290 -19 298 -4 4 -4 -80 0 -185 4
-131 3 -193 -4 -193 -5 0 -38 20 -73 44 -90 62 -257 164 -369 224 -107 58
-138 63 -245 37 -105 -24 -112 -30 -112 -86 -1 -37 3 -51 17 -59 19 -10 31
-51 36 -132 6 -73 23 -126 55 -162 31 -34 183 -119 237 -130 33 -8 90 11 110
35 10 12 27 0 105 -74 51 -49 105 -96 121 -105 32 -19 33 -28 10 -56 -18 -20
-18 -20 6 -5 14 9 33 32 44 52 22 42 17 55 -46 128 -22 26 -38 49 -36 52 7 9
-33 47 -73 69 -21 12 -37 27 -34 34 2 6 -1 23 -9 37 -9 17 -10 28 -3 35 14 14
1 32 -23 32 -10 0 -19 4 -19 8 0 9 97 8 120 -1 8 -3 26 -6 40 -5 49 1 130 -15
141 -28 6 -8 8 -21 5 -30 -5 -14 -11 -12 -34 12 -26 29 -27 29 -30 7 -4 -26
-3 -26 -35 -14 -23 9 -24 8 -22 -20 3 -40 58 -91 100 -93 l30 -2 6 -74 c4 -41
7 -123 8 -181 1 -80 5 -110 16 -119 25 -21 36 -112 15 -133 -4 -5 -61 -10
-126 -12 -66 -2 -158 -9 -206 -15 -72 -11 -86 -15 -77 -27 9 -10 8 -13 -4 -13
-8 0 -17 5 -19 11 -2 6 -42 12 -93 14 -49 3 -93 9 -99 15 -6 6 16 21 67 45 42
19 77 37 77 39 0 3 -6 4 -12 2 -7 -3 -29 -7 -48 -10 -26 -5 -32 -4 -23 5 6 6
10 17 7 23 -4 12 100 66 131 67 11 0 29 5 40 10 40 19 -60 -2 -225 -47 -204
-56 -647 -199 -835 -269 -337 -127 -490 -196 -547 -250 -37 -34 -38 -38 -38
-103 0 -63 2 -70 25 -82 23 -12 32 -11 83 13 76 35 190 77 211 77 10 0 27 -14
40 -30 l22 -30 -58 -28 c-83 -39 -86 -42 -73 -57 17 -21 -44 -46 -105 -44 -80
3 -95 -5 -88 -49 15 -109 64 -173 152 -199 68 -19 177 -22 211 -4 71 38 109
112 130 256 13 94 14 89 -16 125 -24 27 -31 31 -63 26 -43 -7 -57 0 -66 36 -7
26 -6 26 152 76 87 28 180 56 208 63 27 7 44 14 38 16 -7 3 -62 -9 -124 -26
-62 -17 -114 -29 -116 -28 -5 6 233 97 292 112 33 8 113 33 177 55 64 21 131
42 150 45 51 9 71 16 97 36 25 20 76 25 86 9 7 -11 100 -4 204 16 41 8 76 12
78 10 2 -2 -27 -11 -64 -21 -37 -9 -103 -28 -147 -40 -43 -13 -84 -21 -90 -19
-7 3 -23 0 -37 -5 -24 -10 -24 -10 -1 -10 12 -1 22 -5 22 -10 0 -13 -26 -32
-33 -24 -4 3 -7 1 -7 -6 0 -7 -6 -11 -14 -8 -17 7 -53 -17 -39 -26 5 -3 54 5
109 18 376 91 572 136 592 135 33 0 77 -34 92 -70 13 -32 11 -93 -9 -219 -5
-35 -15 -154 -21 -265 -12 -211 -16 -258 -49 -551 -13 -109 -19 -213 -16 -265
2 -47 1 -131 -3 -187 -8 -109 0 -139 30 -122 16 9 57 3 151 -22 43 -11 49 -29
10 -29 -22 0 -25 -2 -13 -10 8 -5 30 -10 49 -10 27 0 32 3 27 17 -8 19 9 33
42 33 16 0 22 -6 22 -22 0 -15 -3 -19 -8 -11 -6 10 -12 10 -28 -2 -10 -8 -14
-15 -9 -15 6 0 11 -14 11 -32 1 -17 9 -37 18 -44 16 -12 16 -13 -4 -24 -13 -7
-37 -9 -58 -5 -20 4 -66 6 -101 6 -85 0 -108 6 -115 32 -5 19 -8 20 -16 7 -20
-30 -30 13 -30 127 l0 112 -29 -10 c-60 -21 -66 -38 -66 -183 0 -128 1 -133
33 -196 17 -36 43 -78 56 -94 24 -28 25 -29 72 -17 40 10 58 10 109 -5 58 -15
65 -15 96 0 46 23 110 117 117 171 2 23 -1 65 -7 93 -8 40 -6 84 9 214 37 312
107 773 200 1322 27 156 32 172 59 199 50 51 101 49 256 -11 123 -48 213 -78
646 -221 165 -55 282 -100 519 -201 119 -50 320 -152 315 -160 -2 -4 -22 -10
-44 -14 -24 -3 -62 -23 -100 -51 -100 -76 -151 -153 -151 -230 0 -41 4 -50 43
-86 71 -66 146 -121 159 -116 7 2 25 -4 40 -15 45 -32 78 -32 138 -1 95 49
151 161 175 353 4 30 23 85 41 122 37 73 52 158 35 198 -9 24 -10 24 -10 3 -1
-28 -21 -31 -21 -3 0 17 -4 19 -27 14 -26 -7 -27 -6 -14 10 8 9 20 15 27 12 7
-3 16 -1 19 4 7 12 -86 64 -415 228 -416 208 -726 336 -1155 477 -243 79 -268
112 -131 174 34 15 124 68 201 116 252 159 360 223 380 227 18 3 21 -4 26 -66
5 -60 10 -73 34 -93 15 -13 33 -22 40 -19 8 3 19 -12 29 -38 41 -106 167 -157
265 -106 41 20 64 59 76 123 8 42 12 44 32 20 24 -31 13 173 -12 217 -22 38
-110 90 -152 90 -25 0 -29 10 -12 27 5 5 9 32 7 59 l-3 49 -68 34 c-108 55
-142 53 -338 -12 -92 -31 -218 -79 -280 -107 -110 -49 -400 -197 -447 -228
-32 -21 -20 -27 17 -7 18 9 36 13 41 10 5 -3 46 6 90 21 45 14 84 24 87 21 7
-8 -23 -20 -102 -43 -33 -10 -73 -27 -89 -38 -19 -14 -30 -17 -33 -10 -2 7
-12 10 -22 7 -22 -6 -21 -13 -27 189 l-6 167 73 97 c41 54 89 118 107 143 l32
46 -2 207 -3 207 -65 66 c-59 60 -72 68 -150 92 -89 28 -115 43 -115 69 0 11
-28 25 -90 45 -147 47 -145 47 -145 6 0 -21 -5 -35 -12 -34 -49 1 -68 -4 -68
-20 0 -12 -3 -14 -8 -6 -4 6 -19 14 -34 18 -20 5 -27 3 -32 -12 -5 -15 -14
-19 -42 -17 -24 2 -37 -2 -41 -12 -3 -9 -12 -13 -21 -9 -12 5 -13 3 -2 -11 10
-11 27 -15 59 -12 37 2 46 0 49 -14 2 -12 -3 -18 -14 -18 -10 0 -46 -16 -81
-35 l-63 -35 0 33 c0 18 7 43 16 55 12 18 13 23 2 26 -12 4 -376 75 -673 131
-77 14 -142 28 -144 31 -3 3 1 9 9 14 13 8 13 11 0 23 -23 22 -299 128 -341
132 -21 2 -47 8 -58 14 -35 19 -104 13 -162 -16z m332 -188 c173 -59 229 -70
213 -43 -7 12 -29 15 306 -53 140 -28 305 -63 365 -78 l110 -27 6 -55 c3 -30
11 -64 17 -76 7 -12 12 -41 12 -65 1 -24 7 -72 15 -108 22 -98 20 -110 -12
-110 -22 0 -25 -2 -13 -10 26 -17 -289 0 -555 31 -177 20 -485 46 -665 55
-128 7 -137 9 -120 29 14 17 18 16 -90 45 -95 25 -241 77 -253 89 -5 5 -6 19
-2 32 9 27 360 387 390 399 42 18 93 8 276 -55z m1694 -264 c-3 -6 -11 -11
-17 -11 -6 0 -6 6 2 15 14 17 26 13 15 -4z m-605 -99 c0 -3 -16 9 -35 28 -19
19 -35 39 -35 44 0 6 16 -6 35 -27 19 -21 35 -41 35 -45z m570 59 c-11 -21
-30 -37 -30 -25 0 8 30 44 37 44 2 0 -1 -9 -7 -19z m-350 -101 c0 -5 -7 -10
-15 -10 -8 0 -15 5 -15 10 0 6 7 10 15 10 8 0 15 -4 15 -10z m88 -39 c3 -9 -2
-11 -17 -6 -27 8 -28 -11 -1 -27 23 -14 27 -48 7 -48 -8 0 -20 12 -27 28 l-13
27 -11 -41 c-7 -26 -16 -39 -24 -36 -7 2 -19 -4 -26 -14 -13 -17 -14 -16 -25
4 -6 12 -18 22 -26 22 -11 0 -15 13 -15 55 l0 56 87 -3 c62 -2 88 -7 91 -17z
m-258 -73 c0 -6 -7 -5 -15 2 -8 7 -15 17 -15 22 0 6 7 5 15 -2 8 -7 15 -17 15
-22z m420 15 c-1 -5 -9 -18 -20 -31 -16 -19 -23 -21 -40 -12 -28 15 -25 32 4
24 16 -4 25 -1 29 10 6 16 27 23 27 9z m60 -62 c0 -4 -10 -21 -22 -37 -12 -16
-23 -31 -24 -33 -2 -1 -7 0 -13 4 -7 4 -2 19 15 41 25 33 44 44 44 25z m-360
-31 c0 -5 -4 -10 -10 -10 -5 0 -10 5 -10 10 0 6 5 10 10 10 6 0 10 -4 10 -10z
m430 -120 c1 -41 1 -121 1 -177 -1 -95 -3 -103 -20 -103 -49 0 -51 6 -51 122
0 97 2 109 15 98 13 -11 15 -8 15 14 0 27 -15 35 -23 14 -3 -8 -6 -6 -6 5 -1
9 10 23 24 29 21 9 25 18 25 52 0 74 19 24 20 -54z m-270 44 c0 -35 -19 -38
-86 -15 -33 11 -60 16 -62 10 -6 -16 -29 -10 -34 9 -4 14 2 17 41 16 25 0 63
-4 84 -8 30 -6 37 -4 37 9 0 9 5 13 10 10 6 -3 10 -17 10 -31z m109 -18 c-20
-35 -59 -75 -59 -61 0 5 14 30 31 57 34 53 60 57 28 4z m-42 -96 c-14 -26 -23
-34 -25 -24 -3 12 33 64 44 64 1 0 -7 -18 -19 -40z m63 -26 c0 -8 -4 -12 -10
-9 -5 3 -10 10 -10 16 0 5 5 9 10 9 6 0 10 -7 10 -16z m-60 -50 c0 -27 -14
-25 -30 7 -9 16 -7 19 10 19 15 0 20 -7 20 -26z m-1238 -148 c3 -17 1 -23 -8
-19 -7 2 -12 13 -11 24 2 27 14 24 19 -5z m133 -66 c3 -5 1 -10 -4 -10 -6 0
-11 5 -11 10 0 6 2 10 4 10 3 0 8 -4 11 -10z m56 -107 c13 -16 12 -17 -3 -4
-17 13 -22 21 -14 21 2 0 10 -8 17 -17z m253 -36 c-17 -10 -54 9 -54 27 0 11
7 10 34 -3 24 -12 30 -18 20 -24z m1470 -47 c-5 -5 -25 -12 -44 -15 l-35 -6
30 15 c35 17 64 21 49 6z m-1559 -60 c10 -11 16 -20 13 -20 -3 0 -13 9 -23 20
-10 11 -16 20 -13 20 3 0 13 -9 23 -20z m828 5 c4 -8 2 -17 -3 -20 -6 -4 -10
3 -10 14 0 25 6 27 13 6z m-773 -50 c13 -14 21 -25 18 -25 -2 0 -15 11 -28 25
-13 14 -21 25 -18 25 2 0 15 -11 28 -25z m749 -214 c1 -48 -5 -35 -12 24 -4
32 -3 43 3 30 5 -11 9 -35 9 -54z m-272 -43 c-2 -13 -4 -3 -4 22 0 25 2 35 4
23 2 -13 2 -33 0 -45z m253 -49 c0 -17 -4 -28 -10 -24 -5 3 -10 17 -10 31 0
13 5 24 10 24 6 0 10 -14 10 -31z m295 -8 c3 -5 1 -12 -5 -16 -5 -3 -10 1 -10
9 0 18 6 21 15 7z m-548 -48 c-3 -10 -5 -2 -5 17 0 19 2 27 5 18 2 -10 2 -26
0 -35z m10 -85 c-3 -7 -5 -2 -5 12 0 14 2 19 5 13 2 -7 2 -19 0 -25z m-692
-17 c-12 -10 -65 -24 -65 -16 0 7 40 24 60 24 8 1 10 -2 5 -8z m42 3 c-3 -3
-12 -4 -19 -1 -8 3 -5 6 6 6 11 1 17 -2 13 -5z m760 -56 c-3 -7 -5 -2 -5 12 0
14 2 19 5 13 2 -7 2 -19 0 -25z m-967 2 c11 -7 1 -10 -35 -9 -37 0 -45 3 -30
9 27 12 47 12 65 0z m1140 0 c0 -5 -4 -10 -10 -10 -5 0 -10 5 -10 10 0 6 5 10
10 10 6 0 10 -4 10 -10z m-25 -20 c3 -5 1 -10 -4 -10 -6 0 -11 5 -11 10 0 6 2
10 4 10 3 0 8 -4 11 -10z m-1295 -30 c-8 -5 -23 -10 -32 -10 -10 0 -22 -10
-29 -21 -9 -17 -13 -19 -20 -8 -5 8 -9 17 -9 21 0 6 63 25 90 27 13 1 13 0 0
-9z m1346 -37 c-4 -27 -10 -88 -15 -138 -4 -49 -12 -99 -19 -110 -10 -17 -11
-18 -12 -2 0 9 -5 17 -11 17 -14 0 -7 105 11 146 12 27 11 36 -2 65 -20 41 -9
69 29 69 25 0 25 -1 19 -47z m-99 31 c-3 -3 -12 -4 -19 -1 -8 3 -5 6 6 6 11 1
17 -2 13 -5z m-389 -16 c-5 -15 -58 -24 -58 -9 0 11 17 19 43 20 11 1 17 -4
15 -11z m-68 -17 c0 -4 -8 -7 -17 -8 -10 0 -34 -4 -53 -8 -31 -8 -34 -7 -22 8
19 23 92 29 92 8z m145 -1 c3 -5 15 -10 26 -10 10 0 19 -4 19 -10 0 -5 -8 -8
-17 -6 -29 5 -53 18 -53 27 0 12 17 11 25 -1z m329 -50 c-1 -30 -5 -75 -9 -99
-7 -38 -10 -42 -21 -27 -6 10 -15 49 -19 87 -8 74 3 103 34 97 12 -3 16 -15
15 -58z m394 34 c28 -9 0 -22 -39 -19 -47 4 -60 12 -39 25 13 8 40 6 78 -6z
m-1798 -40 c0 -8 -5 -12 -10 -9 -6 4 -8 11 -5 16 9 14 15 11 15 -7z m-90 -49
c0 -7 -81 -47 -86 -42 -3 2 14 14 38 26 47 23 48 23 48 16z m-280 -20 c-7 -9
-15 -13 -17 -11 -7 7 7 26 19 26 6 0 6 -6 -2 -15z m1928 -130 c-12 -76 -24
-132 -26 -126 -4 13 27 251 35 264 14 23 11 -13 -9 -138z m856 39 c163 -52
341 -118 511 -189 83 -35 213 -89 290 -121 202 -83 328 -142 343 -161 21 -28
13 -35 -15 -15 -16 11 -50 30 -78 42 -27 12 -106 48 -175 80 -69 32 -179 79
-245 104 -66 26 -140 55 -165 66 -25 11 -83 34 -130 51 -318 117 -472 177
-456 178 5 1 59 -15 120 -35z m521 1 c-40 -19 -67 -18 -35 0 14 8 34 14 45 14
15 -1 13 -4 -10 -14z m-3335 -19 c0 -2 -7 -7 -16 -10 -8 -3 -12 -2 -9 4 6 10
25 14 25 6z m1780 -76 c0 -5 -4 -10 -10 -10 -5 0 -10 5 -10 10 0 6 5 10 10 10
6 0 10 -4 10 -10z m-5 -59 c3 -5 1 -12 -5 -16 -5 -3 -10 1 -10 9 0 18 6 21 15
7z m2275 -268 c0 -29 -15 -61 -24 -53 -4 5 16 80 21 80 2 0 3 -12 3 -27z
m-2580 -813 c0 -5 -4 -10 -10 -10 -5 0 -10 5 -10 10 0 6 5 10 10 10 6 0 10 -4
10 -10z"/>
<path d="M3902 3740 c0 -14 2 -19 5 -12 2 6 2 18 0 25 -3 6 -5 1 -5 -13z"/>
<path d="M3430 3650 c18 -12 50 -13 50 -2 0 4 -15 9 -32 10 -25 2 -29 0 -18
-8z"/>
<path d="M3513 3505 c0 -22 2 -30 4 -17 2 12 2 30 0 40 -3 9 -5 -1 -4 -23z"/>
<path d="M3516 3437 c3 -10 9 -15 12 -12 3 3 0 11 -7 18 -10 9 -11 8 -5 -6z"/>
<path d="M3495 3319 c-10 -15 3 -25 16 -12 7 7 7 13 1 17 -6 3 -14 1 -17 -5z"/>
<path d="M3215 3090 c3 -5 8 -10 11 -10 2 0 4 5 4 10 0 6 -5 10 -11 10 -5 0
-7 -4 -4 -10z"/>
<path d="M3235 3049 c-10 -15 3 -25 16 -12 7 7 7 13 1 17 -6 3 -14 1 -17 -5z"/>
<path d="M3075 2884 c-33 -12 -55 -23 -49 -23 18 -1 104 30 110 40 3 5 4 8 2
8 -2 -1 -30 -12 -63 -25z"/>
<path d="M2978 2853 c6 -2 18 -2 25 0 6 3 1 5 -13 5 -14 0 -19 -2 -12 -5z"/>
<path d="M2850 2790 c0 -5 6 -10 14 -10 8 0 18 5 21 10 3 6 -3 10 -14 10 -12
0 -21 -4 -21 -10z"/>
<path d="M3223 846 c4 -10 7 -22 7 -27 0 -5 11 -9 25 -9 34 0 31 12 -7 34 -29
18 -31 18 -25 2z"/>
<path d="M3230 791 c0 -6 5 -13 10 -16 6 -3 10 1 10 9 0 9 -4 16 -10 16 -5 0
-10 -4 -10 -9z"/>
</g>
</svg>
